<?xml version="1.0" standalone="no"?>
<!DOCTYPE svg PUBLIC "-//W3C//DTD SVG 20010904//EN"
 "http://www.w3.org/TR/2001/REC-SVG-20010904/DTD/svg10.dtd">
<svg version="1.0" xmlns="http://www.w3.org/2000/svg"
 width="500.000000pt" height="500.000000pt" viewBox="0 0 500.000000 500.000000"
 preserveAspectRatio="xMidYMid meet">

<g transform="translate(0.000000,500.000000) scale(0.100000,-0.100000)"
fill="#FFF" stroke="none">
<path d="M3570 4306 c0 -2 9 -6 20 -9 11 -3 18 -1 14 4 -5 9 -34 13 -34 5z"/>
<path d="M3680 4256 c0 -2 7 -7 16 -10 8 -3 12 -2 9 4 -6 10 -25 14 -25 6z"/>
<path d="M3706 4202 c18 -15 40 -40 49 -55 10 -15 20 -25 23 -23 3 3 -1 12 -8
21 -7 8 -9 15 -5 15 4 0 -12 16 -35 35 -49 41 -70 47 -24 7z"/>
<path d="M3769 4197 c21 -22 29 -37 21 -37 -17 0 -2 -17 19 -22 8 -2 32 -25
53 -51 22 -27 44 -45 50 -41 7 5 8 2 3 -5 -4 -8 6 -27 28 -49 52 -55 135 -200
147 -257 18 -85 19 -88 26 -143 4 -29 9 -50 12 -47 10 9 2 93 -13 142 -17 55
-13 66 9 26 27 -50 17 -18 -18 58 -19 41 -46 89 -60 108 -14 19 -26 40 -26 47
0 24 -163 215 -192 227 -10 3 -18 10 -18 15 0 6 -17 22 -37 37 l-38 28 34 -36z"/>
<path d="M3822 4051 c58 -80 115 -172 127 -205 22 -56 53 -118 57 -113 2 2 -7
27 -21 55 -14 27 -25 55 -25 61 0 14 -31 68 -75 132 -19 28 -32 56 -28 62 3 6
1 7 -5 3 -7 -4 -16 3 -23 16 -6 13 -19 30 -30 36 -11 7 -2 -12 23 -47z"/>
<path d="M4017 3685 c3 -22 7 -42 9 -44 8 -9 2 45 -6 64 -7 14 -8 8 -3 -20z"/>
<path d="M4147 3659 c4 -13 8 -18 11 -10 2 7 -1 18 -6 23 -8 8 -9 4 -5 -13z"/>
<path d="M4035 3613 c4 -44 17 -103 24 -107 11 -7 -6 105 -17 116 -5 5 -8 1
-7 -9z"/>
<path d="M4161 3614 c0 -11 3 -14 6 -6 3 7 2 16 -1 19 -3 4 -6 -2 -5 -13z"/>
<path d="M4174 3575 c2 -11 7 -41 11 -67 3 -26 11 -50 17 -54 13 -8 1 70 -18
111 -8 17 -12 21 -10 10z"/>
<path d="M4126 3371 c-3 -76 -13 -160 -21 -187 -8 -27 -14 -62 -14 -79 1 -30
1 -30 10 -5 28 78 56 386 36 406 -2 2 -7 -58 -11 -135z"/>
<path d="M4063 3340 c0 -94 2 -123 8 -95 10 51 10 184 0 210 -5 11 -8 -39 -8
-115z"/>
<path d="M4201 3373 c-1 -28 4 -55 9 -58 12 -8 12 61 0 90 -6 15 -9 6 -9 -32z"/>
<path d="M4207 3283 c-2 -10 -5 -36 -6 -58 -1 -22 -8 -71 -16 -110 -19 -87
-18 -130 0 -55 18 73 39 229 32 236 -3 3 -7 -3 -10 -13z"/>
<path d="M4041 3133 c-7 -40 -11 -78 -9 -85 7 -19 30 105 26 133 -2 15 -9 -4
-17 -48z"/>
<path d="M2555 3143 c-108 -23 -252 -107 -293 -170 -51 -77 -72 -123 -72 -158
0 -59 30 -186 57 -241 51 -104 227 -250 361 -299 20 -7 51 -20 68 -29 17 -9
53 -21 80 -26 27 -6 73 -15 102 -21 58 -11 263 -8 301 6 16 5 22 5 18 -2 -4
-6 30 -1 73 10 44 11 82 18 85 15 9 -9 -15 -234 -36 -333 -49 -233 -174 -483
-333 -669 -56 -65 -200 -188 -286 -245 -30 -20 -57 -39 -60 -43 -9 -12 -179
-78 -200 -78 -10 0 -22 -5 -25 -10 -3 -5 -17 -10 -30 -10 -14 0 -44 -4 -67
-10 -24 -5 -77 -14 -119 -18 -68 -9 -110 -7 -294 13 -74 7 -194 35 -200 46 -4
5 -15 9 -25 9 -26 0 -218 91 -277 131 -27 18 -72 57 -101 87 -46 48 -51 57
-37 65 10 5 81 7 168 3 187 -7 247 -1 247 25 0 11 7 19 18 20 11 1 9 4 -8 9
-21 7 -22 8 -5 9 11 1 26 5 34 10 15 10 -9 8 -144 -9 -47 -6 -153 -7 -257 -4
-98 4 -181 6 -185 5 -11 -2 -7 -80 7 -142 7 -30 14 -67 16 -84 2 -16 6 -50 9
-75 4 -25 10 -49 16 -54 5 -6 9 -25 9 -44 0 -28 3 -32 14 -23 11 9 15 5 20
-25 10 -52 27 -83 41 -77 11 4 11 10 0 36 -7 18 -15 88 -19 157 -3 69 -9 142
-12 163 -3 20 -2 37 3 37 4 0 48 -34 96 -76 102 -88 248 -171 372 -212 154
-51 244 -65 410 -66 95 0 178 4 205 12 25 6 77 18 115 27 39 8 97 28 130 43
33 16 77 36 97 45 33 14 167 105 194 131 6 6 53 48 105 93 52 45 115 106 139
134 54 63 145 200 196 294 47 88 162 400 151 412 -3 2 1 28 9 56 8 29 17 102
21 163 l6 112 41 6 c22 4 48 14 57 22 9 8 29 17 44 20 36 6 262 169 262 189 0
24 2 26 -114 -74 -52 -45 -275 -149 -237 -111 6 6 20 12 33 15 21 4 48 23 107
78 16 15 55 50 87 79 31 28 60 62 63 75 4 12 12 23 19 23 7 0 27 17 45 38 43
51 136 193 145 223 4 13 16 42 25 64 17 39 22 52 40 123 10 40 1 34 -16 -11
-6 -17 -21 -56 -31 -85 -22 -57 -52 -98 -39 -52 18 63 26 103 23 107 -5 4 -57
-121 -57 -136 0 -13 -78 -150 -104 -183 -47 -59 -81 -110 -81 -121 -1 -7 -7
-11 -14 -9 -7 1 -44 -24 -81 -57 -65 -58 -162 -121 -207 -135 -20 -7 -23 -4
-23 24 0 17 -8 56 -19 88 -10 31 -28 89 -39 127 -42 139 -224 381 -323 427
-20 10 -42 24 -49 33 -7 8 -21 15 -32 15 -11 0 -42 11 -68 24 -82 41 -279 68
-365 49z m167 -59 c64 -15 140 -46 221 -90 51 -28 231 -216 257 -269 13 -27
31 -60 39 -73 37 -59 72 -188 74 -272 l2 -84 -55 -13 c-104 -25 -236 -31 -324
-16 -289 49 -565 240 -633 438 -14 42 -14 56 -2 119 11 61 20 78 64 131 112
132 201 164 357 129z m-322 -47 c0 -2 -15 -16 -32 -33 l-33 -29 29 33 c28 30
36 37 36 29z m668 -79 c162 -120 268 -297 306 -509 20 -109 20 -139 1 -139
-11 0 -15 12 -15 49 0 48 -13 96 -63 231 -35 94 -37 98 -92 180 -49 73 -171
206 -230 249 -16 12 -23 19 -15 15 8 -4 57 -38 108 -76z m-800 -65 c-12 -35
-17 -69 -13 -88 3 -16 10 -59 15 -94 10 -65 37 -130 71 -166 10 -11 40 -44 65
-72 82 -93 264 -190 429 -228 17 -4 25 -9 18 -12 -14 -5 -181 39 -236 62 -54
22 -138 75 -198 124 -112 92 -182 206 -198 323 -7 53 -5 71 11 113 18 47 44
95 52 95 1 0 -6 -26 -16 -57z m1716 -57 c-3 -9 -10 -16 -15 -16 -6 0 -5 9 1
21 13 24 24 20 14 -5z m-580 -618 c-2 -18 -9 -82 -14 -143 -15 -173 -51 -337
-87 -390 -7 -11 -13 -27 -13 -36 0 -45 -133 -267 -209 -349 -46 -49 -41 -39
37 79 23 36 42 70 42 77 0 6 8 18 17 25 9 8 29 41 44 74 33 74 109 300 109
326 0 11 4 27 9 37 13 25 31 176 31 260 0 65 2 72 19 72 17 0 19 -5 15 -32z
m-458 4 c-16 -2 -32 0 -37 5 -5 5 7 7 29 4 34 -5 35 -6 8 -9z m-1731 -1289 c4
-13 3 -23 -3 -23 -8 0 -24 64 -20 80 1 3 -4 15 -11 28 -6 12 -9 28 -4 35 4 7
12 -10 19 -43 7 -30 16 -65 19 -77z m1311 -78 c-11 -8 -24 -15 -30 -15 -5 0
-1 7 10 15 10 8 24 14 29 14 6 0 1 -6 -9 -14z"/>
<path d="M4145 2958 c-14 -44 -86 -191 -119 -242 -18 -28 -54 -77 -79 -108
-53 -65 -59 -79 -21 -49 35 27 146 184 173 245 27 59 63 168 57 173 -2 3 -7
-6 -11 -19z"/>
<path d="M1185 765 c4 -17 11 -34 16 -39 5 -5 4 5 -1 24 -12 42 -24 55 -15 15z"/>
</g>
</svg>
